<svg xmlns="http://www.w3.org/2000/svg" pointer-events="none" class="leaflet-zoom-animated" width="1064" height="682" viewBox="-89 -57 1064 682" style="transform: translate3d(-89px, -57px, 0px);"><g><path class="leaflet-interactive" stroke="#201920" stroke-opacity="1" stroke-width="2" stroke-linecap="round" stroke-linejoin="round" fill="none" d="M104 269L104 265L103 266L101 262L105 260L104 257L107 254L108 255L111 252L113 252L113 250L116 251L118 249L119 252L125 252L130 244L135 245L138 242L139 243L139 241L145 239L148 236L155 234L155 227L158 224L157 223L160 222L160 218L157 211L157 205L153 203L153 201L166 197L174 199L175 198L172 195L172 193L178 175L185 178L194 179L198 177L200 175L198 164L202 160L204 161L207 159L209 155L208 154L210 152L216 152L218 159L223 161L225 165L231 165L232 168L235 167L235 169L238 171L240 178L242 178L243 181L243 184L241 186L242 189L240 192L241 199L242 198L245 200L246 199L252 201L262 201L273 209L278 209L277 212L279 212L280 217L286 226L292 225L311 228L327 228L334 233L335 232L340 235L350 236L351 238L355 239L358 236L375 229L385 230L396 227L404 219L408 218L411 215L407 209L408 204L411 200L424 204L428 202L433 196L440 196L446 191L445 190L450 185L454 185L455 182L459 183L461 181L466 180L468 182L475 181L474 176L464 166L459 165L455 169L446 167L443 170L440 167L440 165L442 163L449 143L457 147L464 142L470 140L471 137L469 137L469 135L474 128L476 120L479 117L481 117L482 114L481 109L479 107L476 108L476 106L484 98L485 99L501 95L505 95L509 98L510 97L512 100L515 101L521 101L521 104L523 104L524 108L527 110L526 113L528 114L527 115L530 120L529 121L531 122L531 128L534 131L535 138L537 138L536 143L539 147L546 146L546 148L552 148L552 150L554 150L558 155L562 155L560 158L563 162L561 164L565 170L576 169L581 164L583 165L590 161L597 161L594 162L593 167L595 169L589 175L590 176L587 183L588 186L581 199L578 200L571 197L569 199L570 200L564 202L567 212L567 218L565 224L560 226L561 229L558 226L558 224L555 223L554 228L552 230L551 229L548 234L540 234L543 239L541 241L534 240L532 238L533 237L531 237L532 236L529 237L524 246L517 249L511 254M144 336L141 333L141 331L144 328L146 332L148 330L148 326L143 320L143 316L146 313L140 309L138 301L133 302L126 299L126 297L123 298L121 295L122 292L119 289L117 289L117 287L109 285L111 283L113 284M370 426L368 426L369 423L367 423L369 419L367 417L362 418L358 414L356 414L354 418L349 418L346 421L344 419L342 419L339 422L336 419L334 419L333 422L328 421L328 433L324 432L324 428L316 430L316 428L314 428L313 425L309 425L309 419L311 417L306 415L306 411L304 409L306 407L300 407L296 409L295 408L297 406L295 404L297 400L296 399L304 391L303 390L305 386L305 378L302 375L302 377L300 375L300 371L296 369L296 367L294 369L295 370L293 370L294 373L291 375L284 370L280 370L277 371L277 373L274 375L269 376L263 382L259 383L251 383L251 377L247 377L246 372L241 373L232 370L228 374L226 379L224 377L225 372L223 371L221 373L216 374L212 374L207 371L205 373L203 371L203 373L199 369L196 370L195 366L192 367L187 362L187 360L183 362L178 357L176 357L176 355L175 356L174 354L172 354L171 351L166 350L164 354L150 344L147 345L144 342L144 336M379 430L374 429L370 426M382 559L381 550M390 475L393 479L394 484M398 508L396 516M410 580L418 577M440 549L445 543M464 519L467 510M468 477L468 486M476 452L471 460M491 428L485 436M496 413L498 403" id="国界"/><path class="leaflet-interactive" stroke="#201920" stroke-opacity="1" stroke-width="2" stroke-linecap="butt" stroke-linejoin="round" stroke-dasharray="4,4" stroke-dashoffset="4" fill="none" d="M113 284L115 282L113 280L113 272L111 270L108 269L106 271L104 269" id="争议"/><path class="leaflet-interactive" stroke="gray" stroke-opacity="1" stroke-width="1" stroke-linecap="round" stroke-linejoin="round" stroke-dasharray="8,4,4,4" fill="none" d="M424 424L424 424M429 421L427 421L426 424L431 424L431 422L429 421" id="港澳"/><path class="leaflet-interactive" stroke="#4190da" stroke-opacity="1" stroke-width="1" stroke-linecap="round" stroke-linejoin="round" fill="none" d="M428 423L428 421L426 422L425 419L424 424L422 426L421 425L421 427L418 426L416 428L413 427L411 429L401 431L397 434L397 436L400 439L398 441L394 441L392 435L394 431L392 429L390 431L388 431L388 429L379 430M398 433L398 433M398 433L398 435L398 433M424 424L424 424M428 423L428 423M428 423L428 423M428 423L428 423M475 384L472 385L474 385L475 388L472 389L473 392L471 394L475 394L473 396L470 395L470 397L468 397L469 398L468 399L468 397L466 401L465 400L466 401L464 404L461 403L461 405L455 412L451 412L447 418L441 418L439 420L437 418L434 421L432 419L432 421L431 422L431 420L429 422L431 422L428 423M475 384L475 384M490 362L488 366L489 369L486 372L485 371L484 374L483 373L475 386L474 385L476 383L475 384M488 288L486 290L482 290L483 293L482 292L481 295L478 296L478 294L478 296L469 307L479 315L483 325L483 329L488 333L487 334L491 336L491 338L486 336L484 338L486 340M486 340L492 345L491 346L493 348L489 346L484 349L487 350L491 355L493 355L490 357L492 358L491 362M488 288L488 288M488 288L488 288M494 262L491 266L487 268L484 267L489 264L489 262L488 263L485 260L487 260L487 258L494 251L493 248L492 249L490 247L485 246L480 251L480 253L473 256L470 259L470 261L464 265L464 267L461 266L461 264L459 264L457 268L457 272L459 272L459 274L466 275L469 278L470 277L470 279L467 280L467 282L470 285L474 285L474 283L478 280L477 279L481 278L487 280L487 282L493 281L497 283L494 288L488 288M488 288L488 288M490 362L490 362M490 362L490 362M490 362L490 362M491 362L490 362M491 362L491 362M493 354L493 354M493 354L493 354M493 354L493 354M494 354L493 354M493 354L491 352L493 352L494 354M494 354L494 354M494 352L495 351L494 352M494 352L494 352M494 262L494 262M511 254L509 258L503 258L494 262M495 347L495 347M495 347L495 347M497 346L497 346M386 429L386 429M388 434L388 434M391 444L391 444M391 548L392 546L395 547L394 546L391 548M392 459L384 455L384 449L389 444L401 441L404 445L401 448L399 454L393 457L392 459M395 544L396 543L395 544M398 437L398 437M399 433L399 433M399 544L399 544M399 542L400 541L399 542M400 434L400 432L400 434M400 440L400 440M400 542L400 542M400 435L400 435M405 478L405 478M407 468L408 467L407 468M407 538L407 538M407 473L407 473M407 532L407 532M408 546L408 546M408 544L408 544M408 473L408 473M408 472L408 472M408 543L409 544L408 543M408 475L408 475M408 537L409 538L408 537M408 472L408 472M409 545L409 545M409 472L409 472M409 475L410 474L409 475M409 473L410 472L409 473M409 476L409 476M411 542L411 542M411 474L411 474M411 576L411 576M413 536L413 536M413 536L413 536M413 576L413 576M413 470L413 470M413 479L413 479M413 468L414 469L413 468M413 535L414 536L413 535M413 575L413 575M414 535L414 535M414 562L414 562M414 469L414 469M414 470L414 470M415 474L414 475L415 474M415 429L415 429M415 561L415 561M415 477L416 476L415 477M415 473L416 472L415 473M415 530L415 530M415 562L416 561L415 562M415 560L416 561L415 560M416 536L416 536M416 559L416 559M416 566L416 566M416 429L416 429M416 562L416 562M416 564L416 564M416 473L417 474L416 473M416 566L416 566M417 428L416 429L417 428M417 474L417 474M417 471L417 471M418 429L417 428L418 429M418 535L418 535M418 429L418 429M418 470L418 470M418 544L418 544M418 530L418 530M418 530L418 530M419 567L419 567M419 539L419 539M419 447L419 447M419 529L419 529M419 427L419 427M420 426L420 426M420 427L420 427M421 426L421 426M421 556L421 556M421 542L421 542M421 542L422 541L421 542M424 424L424 424M424 524L424 524M424 551L424 551M424 535L425 534L424 535M425 533L425 533M425 426L425 426M425 480L425 480M425 426L425 426M425 426L425 426M425 426L425 426M425 546L426 545L425 546M426 548L426 548M426 422L426 422M426 425L426 425M426 450L426 450M426 424L428 424L426 424M426 526L426 526M426 481L426 481M426 479L427 480L426 479M426 543L427 542L426 543M426 546L431 543L432 544L430 546L426 546M427 535L426 536L427 535M427 478L427 478M427 536L427 536M427 535L428 536L427 535M427 482L427 482M428 526L428 526M428 519L428 519M428 542L428 542M428 477L428 477M428 424L428 424M429 426L429 426M429 531L429 531M429 423L429 423M429 426L429 426M429 536L429 536M429 476L429 476M429 425L429 425M429 481L429 481M429 524L429 524M429 528L429 528M429 424L429 424M429 480L430 481L429 480M430 529L430 529M430 515L430 515M430 421L430 421M430 518L430 518M430 423L430 423M430 525L430 525M430 520L430 520M430 514L430 514M431 476L431 476M431 527L431 527M431 480L431 480M431 528L431 528M431 519L431 519M431 520L431 520M431 527L431 527M431 542L432 541L431 542M432 527L432 527M432 527L432 527M432 515L432 515M432 527L432 527M432 536L433 535L432 536M432 480L432 480M432 527L433 526L432 527M432 515L433 514L432 515M432 422L432 422M433 546L433 546M433 541L433 541M433 523L433 523M433 514L433 514M433 518L434 517L433 518M433 475L433 475M433 528L433 528M434 541L434 541M434 517L434 517M434 478L434 478M434 520L434 520M434 549L434 549M434 543L434 543M435 519L435 519M435 476L435 476M435 547L435 547M435 517L435 517M437 539L438 540L437 539M437 538L438 539L437 538M438 525L438 525M438 494L438 494M439 531L439 531M439 527L439 527M439 539L440 538L439 539M441 522L441 522M441 522L441 522M441 522L441 522M441 523L442 522L441 523M442 522L442 522M442 529L443 528L442 529M442 519L442 519M443 434L443 434M443 433L444 434L443 433M443 532L443 532M444 526L444 526M445 530L445 530M446 535L446 535M447 528L447 528M447 533L447 533M447 528L447 528M447 523L449 523L447 523M448 528L448 528M449 522L449 522M449 474L449 474M449 514L450 515L449 514M449 437L449 437M449 534L449 534M450 436L450 438L450 436M450 522L450 522M453 413L451 413L453 413M453 521L453 521M453 520L453 520M454 524L454 524M454 521L455 520L454 521M454 517L454 517M454 526L454 526M455 518L455 518M457 521L457 521M457 518L457 518M457 484L458 483L457 484M458 520L458 520M460 404L460 404M461 404L460 403L461 404M461 405L462 404L461 405M463 404L462 405L463 404M465 265L465 265M466 264L466 264M466 264L467 265L466 264M471 415L471 415M471 398L472 397L471 398M472 414L472 414M472 411L472 411M472 411L472 411M472 394L472 394M473 389L473 389M473 412L472 413L473 412M473 393L473 393M473 394L473 394M473 385L474 384L473 385M473 396L473 396M473 396L473 396M474 385L474 385M475 394L475 394M475 389L475 389M475 391L475 391M476 413L476 413M476 388L475 389L476 388M476 386L476 386M477 386L477 386M477 385L477 385M477 383L477 383M477 299L477 299M478 382L478 382M478 423L478 423M478 382L478 382M479 279L479 279M480 387L480 387M481 277L480 276L481 277M481 426L477 419L476 412L482 402L487 397L489 397L491 399L491 404L487 416L483 421L483 427L481 426M481 276L481 276M481 277L481 277M482 275L482 275M482 250L482 250M482 273L482 273M483 272L483 272M483 273L483 273M484 292L484 292M484 373L484 373M484 377L484 377M484 373L485 372L484 373M485 373L486 372L485 373M487 337L492 340L491 341L485 337L487 337M487 330L487 330M487 420L487 420M488 425L488 425M489 426L489 426M489 340L489 340M489 362L489 362M490 366L490 366M490 342L488 341L490 342M490 341L492 342L490 341M490 353L490 353M490 365L490 365M490 366L491 365L490 366M491 368L491 368M491 353L490 354L491 353M491 342L491 342M491 368L491 368M491 395L491 395M491 401L491 401M491 353L491 353M491 343L492 342L491 343M491 351L491 351M492 362L492 362M492 356L492 356M492 354L492 354M492 352L492 352M492 348L492 348M492 354L492 354M492 354L492 354M493 354L493 354M493 354L493 354M493 352L493 352M493 351L494 352L493 351M493 352L493 352M493 359L493 359M493 357L492 356L493 357M493 357L493 357M493 354L494 355L493 354M494 355L494 355M494 355L494 355M494 357L493 356L494 357M494 355L495 354L495 356L494 355M495 264L495 264M495 354L495 354M495 350L495 350M496 350L496 350M496 264L496 264M496 263L496 263M496 348L496 348M497 264L498 263L497 264M498 353L498 353M498 266L497 265L498 266M498 347L498 347M498 347L498 347M500 260L499 261L500 260M500 261L500 261M501 266L501 266M502 393L504 393L502 393M504 392L504 392M505 391L506 392L505 391M505 394L505 394M505 393L505 393M505 394L505 394M505 258L505 258M512 391L511 392L512 391" id="海洋"/><path class="leaflet-interactive" stroke="#747569" stroke-opacity="0.6" stroke-width="1" stroke-linecap="round" stroke-linejoin="round" fill="none" d="M232 295L223 292L213 292L205 294L202 299L194 299L187 303L178 302L177 299L173 299L173 301L171 301L169 304L157 302L157 304L155 306L154 305L153 310L151 312L150 311L146 313M296 330L294 330L294 332L291 335L289 335L288 338L285 336L284 339L282 337L279 338L277 336L278 333L277 334L275 332L277 332L275 332L272 329L266 331L261 330L259 328L252 328L247 325L241 325L237 323L231 315L233 315L233 307L231 307L230 304L233 298L229 296L232 295M254 266L247 267L245 269L239 269L238 271L235 272L236 274L238 274L238 279L240 279L245 286L243 286L240 289L240 291L243 292L241 296L235 294L233 296L232 295M329 320L328 321L327 319L325 319L321 315L321 313L322 312L331 315L331 313L333 313L330 310L330 308L334 304L333 303L337 301L336 298L338 298L339 296L337 290L334 287L336 285L330 279L329 280L325 278L316 271L316 273L314 273L306 265L301 266L299 268L294 264L290 264L291 269L288 272L288 274L286 273L284 275L280 272L271 273L269 268L265 269L265 267L260 267L259 264L254 266M286 226L282 229L284 232L282 236L277 238L274 237L266 244L264 248L258 249L256 259L253 263L254 266M349 282L342 278L342 272L346 270L349 265L347 263L348 262L345 261L339 265L335 263L329 265L331 267L329 269L322 266L321 262L311 257L317 249L316 246L308 246L308 248L307 247L304 249L304 247L301 249L301 246L298 244L296 240L297 238L292 225M308 361L306 347L303 342L306 341L302 337L300 331L296 330M329 320L328 325L324 323L325 328L319 330L317 328L316 329L314 325L313 328L306 325L302 315L298 314L296 315L296 317L294 317L294 319L297 322L294 325L295 326L293 326L294 329L296 330M300 371L300 369L304 371L304 363L306 365L306 361L308 361M357 375L356 372L352 374L350 372L350 366L346 366L346 369L342 371L343 374L338 379L339 386L336 389L336 387L329 390L329 388L327 388L327 384L321 376L322 375L320 373L318 375L315 372L315 367L312 365L310 367L310 371L308 369L308 361M359 326L358 329L352 329L349 326L350 323L348 319L341 318L338 313L332 317L335 320L330 325L329 320M376 278L373 275L367 273L371 266L369 262L365 263L365 265L364 264L362 268L362 276L360 279L349 282M349 282L351 282L358 289L357 290L359 294L359 299L361 299L361 301L363 301L366 304L366 300L371 297L371 295L367 293L367 287L369 285L373 285M357 375L357 377L353 379L349 379L346 377L344 381L345 386L351 384L352 385L349 394L352 397L354 397L351 402M351 402L351 404L355 404L357 408L362 407L364 409L363 413L362 412L359 415M391 390L390 393L387 392L386 393L388 393L388 395L385 394L384 397L380 395L381 396L377 398L374 397L373 394L363 402L356 399L352 403L351 402M366 368L364 366L360 368L360 370L361 369L365 371L366 373L364 375L357 375M373 285L373 287L380 291L381 290L384 293L384 302L382 304L377 303L377 307L367 305L368 308L366 310L369 313L367 313L368 320L362 320L361 323L363 324L360 327L359 326M383 333L377 333L376 331L374 331L375 330L373 331L371 329L372 328L365 329L363 327L360 328L359 326M389 368L388 371L386 371L382 363L378 363L376 361L374 361L374 365L371 364L369 368L367 368L367 366L366 368M366 368L365 364L361 364L361 362L357 358L361 354L359 352L363 350L365 352L368 351L368 353L371 354L374 351L374 347L379 346L379 342L383 339L381 335L383 333M373 285L373 281L376 278M404 262L404 260L401 263L398 263L396 261L397 262L395 264L394 263L395 264L388 271L388 276L386 276L384 280L376 278M383 333L392 338M392 338L397 343L397 345L391 349L382 349L382 351L384 352L382 356L384 356L387 359L386 360L388 359L389 362M389 362L389 368M427 363L425 363L424 356L420 359L419 356L414 359L410 355L406 355L404 353L400 353L400 357L393 356L393 358L392 357L389 362M391 390L391 388L389 388L391 380L386 381L386 379L388 379L387 378L391 376L389 368M411 402L410 401L407 403L407 399L403 399L407 392L405 392L404 387L400 387L397 391L395 389L393 391L391 390M403 323L401 325L399 323L391 323L393 327L394 326L397 329L393 329L391 331L392 338M393 430L393 431M393 430L397 426L398 427L398 425L401 424L401 422L404 419L406 419L406 413L411 408L410 407L412 405L411 402M394 442L395 442M396 442L398 441M398 310L397 307L400 300L398 286L402 280L399 277L399 275L402 272L403 267L405 265L404 262M398 310L403 323M398 310L408 308L411 305L412 306L412 304L418 304L424 300L425 293M399 441L400 440M438 341L436 339L433 340L432 337L427 338L425 334L426 333L424 331L422 333L420 331L413 332L409 330L403 323M403 324L403 324M428 248L428 250L418 252L418 254L415 252L410 260L407 259L407 261L404 262M411 402L413 398L417 398L417 400L419 400L420 397L418 397L420 395L424 397L427 395M439 295L436 294L435 296L425 293M425 293L423 289L425 289L425 287L426 288L425 285L428 282L428 278L426 274L424 274L424 270L426 268L425 266L430 265L432 261L431 258L427 256L427 254L428 255L428 253L431 252L429 250L430 249L428 248M445 356L443 357L439 355L439 357L437 357L434 360L430 360L427 363M427 395L427 391L429 389L427 389L428 386L426 384L426 379L424 377L424 375L429 370L429 366L427 363M427 395L427 397L433 397L433 399L431 399L429 403L431 404L438 401L442 403L441 402L443 400M469 242L462 241L462 233L461 234L459 232L460 231L458 227L452 229L448 235L447 234L444 237L442 235L438 237L438 239L434 239L435 235L431 233L429 239L426 240L428 248M445 310L445 312L448 313L449 316L446 319L442 315L440 317L441 320L439 320L438 323L434 325L437 328L437 330L443 330L443 336L440 337L438 341M445 356L442 350L442 346L444 344L438 341M459 273L454 278L450 278L447 281L446 280L445 283L443 283L443 285L438 290L439 295M445 310L439 310L439 308L437 308L437 306L436 307L434 305L442 297L444 297L444 295L438 299L439 295M443 400L442 397L449 386L448 383L452 381L453 378L451 376L454 375L454 373L457 374L463 370M453 412L450 403L448 403L446 401L447 400L443 400M461 360L461 358L457 358L454 355L452 355L453 356L450 358L449 357L451 355L449 353L445 356M446 310L445 310M470 306L466 306L466 308L463 309L462 312L459 309L457 311L454 310L454 312L450 306L447 307L446 310M473 343L472 344L470 342L466 342L465 341L467 339L465 339L465 337L464 338L462 336L464 334L463 333L465 333L464 330L468 330L469 327L466 326L466 328L462 328L462 326L459 323L461 319L457 319L458 318L455 315L446 310M455 253L453 251L456 248L452 248L448 244L446 246L447 247L441 250L443 252L439 256L439 258L442 261L446 261L448 259L450 260M457 270L454 271L449 268L451 264L450 260M451 259L450 260M451 259L453 259L453 255M453 255L450 256L451 259M453 412L454 413M455 253L453 255M454 414L455 414M455 253L458 256L456 256L456 258L460 264M461 360L467 354L466 353L471 350L469 348L472 347L473 343M461 360L460 363L463 366L463 370M479 380L478 377L474 379L472 375L469 378L466 377L466 370L463 370M469 242L471 240L471 230L476 235L476 237L482 231L483 232L486 229L490 229L492 226L500 226L503 223L505 223L505 219M474 256L474 253L471 250L469 250L469 248L466 247L469 242M483 344L480 347L473 343M481 381L482 381M482 272L484 272M491 339L486 336L485 342L483 344M486 348L483 344M487 348L488 348M503 178L503 180L502 179L500 181L495 174L496 171L510 159L512 165L514 153L518 151L517 143L524 128L518 120L515 122L515 124L500 125L497 116L498 113L494 109L491 112L489 112L489 110L486 108L490 102L488 98M488 348L489 347M490 347L491 347M492 346L493 346M495 346L496 346M497 345L498 345M567 218L562 218L558 212L556 214L556 212L553 214L552 213L550 217L548 217L544 211L543 206L540 209L541 210L538 211L535 205L532 206L533 201L531 199L523 199L521 195L512 196L508 192L508 186L501 187M501 187L500 183L505 181L505 179L504 180L503 178M501 187L498 189L498 193L495 190L492 191L490 189L489 192L492 194L494 198L492 201L494 209L499 208L501 206L504 215L504 217L502 217L505 219M503 178L503 178M503 178L503 178M503 178L503 178M505 219L506 218L511 223L511 225L514 222L515 223L517 231L519 233L520 232L518 234L518 238L520 238L519 239L522 242L520 246L522 246M362 302L363 301L362 302M391 384L392 383L391 384M419 356L419 356" id="省界"/><path class="leaflet-interactive" stroke="#8B908F" stroke-opacity="0.5" stroke-width="1" stroke-linecap="butt" stroke-linejoin="bevel" fill="#eee" fill-opacity="0.5" fill-rule="evenodd" d="M454 249L456 249L451 248L449 244L444 249L441 250L443 252L442 254L439 255L439 258L442 261L446 261L448 259L449 260L451 258L450 255L455 254L453 252L454 249z" id="北京市"/><path class="leaflet-interactive" stroke="#8B908F" stroke-opacity="0.5" stroke-width="1" stroke-linecap="butt" stroke-linejoin="bevel" fill="#eee" fill-opacity="0.5" fill-rule="evenodd" d="M458 262L459 261L456 258L456 256L458 256L455 253L453 255L453 259L450 260L451 264L449 268L457 270L459 266L458 265L460 263L457 262zM458 262L458 262z" id="天津市"/><path class="leaflet-interactive" stroke="#8B908F" stroke-opacity="0.5" stroke-width="1" stroke-linecap="butt" stroke-linejoin="bevel" fill="#eee" fill-opacity="0.5" fill-rule="evenodd" d="M455 249L453 251L458 256L456 256L456 258L463 267L470 261L470 258L474 256L472 250L470 250L467 247L467 245L470 242L462 241L462 233L461 234L459 232L460 231L458 227L452 229L449 235L443 235L438 237L438 239L435 238L435 235L433 233L431 233L429 239L426 240L426 244L430 252L432 252L427 255L431 257L431 263L427 265L424 270L424 274L427 276L428 279L425 285L426 286L423 290L426 293L435 296L437 294L438 295L438 291L442 287L443 283L446 281L447 282L450 278L454 278L459 273L456 270L452 270L449 268L451 264L449 259L447 261L441 261L439 259L439 256L443 252L441 250L444 249L449 244L451 248L455 249zM453 255L450 256L451 259L453 259L453 255zM458 262L457 262zM466 264L466 265z" id="河北省"/><path class="leaflet-interactive" stroke="#8B908F" stroke-opacity="0.5" stroke-width="1" stroke-linecap="butt" stroke-linejoin="bevel" fill="#eee" fill-opacity="0.5" fill-rule="evenodd" d="M398 310L408 308L411 305L412 306L412 304L418 304L424 300L425 293L423 289L426 287L425 286L428 281L427 276L424 273L426 269L425 266L430 265L432 261L431 258L427 255L432 252L430 252L429 248L424 252L421 251L418 252L417 254L415 252L410 260L408 259L405 262L402 272L399 275L399 277L402 280L398 286L400 298L397 307L398 310z" id="山西省"/><path class="leaflet-interactive" stroke="#8B908F" stroke-opacity="0.5" stroke-width="1" stroke-linecap="butt" stroke-linejoin="bevel" fill="#eee" fill-opacity="0.5" fill-rule="evenodd" d="M292 225L297 238L295 240L301 246L301 249L305 249L307 247L308 248L308 246L315 246L317 249L316 253L311 257L321 262L321 266L324 266L327 269L329 269L331 267L329 265L334 263L338 265L342 262L347 261L349 265L346 270L342 272L342 278L350 282L359 279L362 276L362 268L364 264L365 265L365 263L368 262L371 265L371 267L367 273L370 275L374 275L374 277L379 278L379 280L384 280L385 277L388 276L387 273L395 264L394 263L395 264L397 262L396 261L398 263L400 263L403 260L405 262L408 259L409 260L415 252L417 254L421 251L424 252L428 250L426 240L429 239L431 233L433 233L435 235L434 238L437 239L442 235L444 237L447 234L448 235L451 233L451 229L455 229L458 227L460 231L459 232L461 234L462 233L462 241L469 242L471 240L471 234L469 232L471 230L476 235L476 237L482 231L483 232L486 229L490 229L496 225L499 226L505 222L505 220L502 217L504 217L504 215L501 206L494 210L492 203L494 199L489 192L490 189L492 191L495 190L498 193L498 189L501 187L500 183L505 181L504 178L502 178L503 179L501 181L499 180L499 178L495 174L496 171L504 166L510 159L512 165L514 153L518 151L517 143L524 128L518 120L515 122L515 124L500 124L497 117L498 112L496 112L493 109L490 112L486 108L490 102L489 99L484 98L476 106L476 108L481 108L482 115L475 122L476 123L471 130L472 131L469 137L471 137L470 140L457 147L449 143L442 159L442 163L440 164L440 167L443 170L446 167L455 170L459 165L464 166L474 176L475 181L473 183L468 182L466 180L458 183L456 182L454 185L450 185L445 191L446 192L441 196L433 196L428 202L424 204L418 203L415 200L410 200L407 208L411 216L403 220L398 226L386 230L375 229L366 232L355 239L352 238L351 236L340 235L336 232L334 233L327 228L306 228L293 226z" id="内蒙古自治区"/><path class="leaflet-interactive" stroke="#8B908F" stroke-opacity="0.5" stroke-width="1" stroke-linecap="butt" stroke-linejoin="bevel" fill="#eee" fill-opacity="0.5" fill-rule="evenodd" d="M504 258L508 258L515 250L516 251L522 246L522 242L519 239L520 238L518 238L518 234L520 232L519 233L517 231L517 227L514 222L511 225L511 222L506 218L504 223L501 224L502 225L495 225L495 227L493 226L490 229L486 229L476 237L476 235L471 230L469 232L471 234L471 239L467 244L467 247L470 250L472 250L474 256L480 253L480 251L485 246L490 246L494 250L491 253L492 254L487 258L488 259L485 261L489 263L489 265L488 264L488 266L487 265L485 269L490 266L491 267L490 266L496 261L504 258zM497 263L497 263zM494 264L494 264zM497 263L498 264L497 263zM498 266L497 265L498 266zM500 260L499 261L500 260zM496 263L496 264zM482 250L482 250zM500 261L500 261zM501 266L501 266zM505 258L506 258z" id="辽宁省"/><path class="leaflet-interactive" stroke="#8B908F" stroke-opacity="0.5" stroke-width="1" stroke-linecap="butt" stroke-linejoin="bevel" fill="#eee" fill-opacity="0.5" fill-rule="evenodd" d="M553 230L555 223L557 223L561 229L561 227L559 226L563 225L566 222L567 219L559 216L559 212L557 214L555 212L551 214L550 217L548 217L544 211L543 206L540 209L541 210L538 211L535 205L532 206L533 201L531 199L523 199L521 195L517 197L515 195L512 196L508 192L508 188L506 186L502 186L498 189L498 193L495 190L492 191L490 189L489 192L492 194L494 199L492 201L494 209L496 210L501 206L504 215L504 217L502 217L504 219L506 218L509 221L510 220L510 223L512 225L514 222L515 223L517 231L519 233L520 232L518 234L518 238L520 238L519 239L522 242L522 246L525 245L531 236L535 240L542 241L540 234L548 234L551 229L553 230z" id="吉林省"/><path class="leaflet-interactive" stroke="#8B908F" stroke-opacity="0.5" stroke-width="1" stroke-linecap="butt" stroke-linejoin="bevel" fill="#eee" fill-opacity="0.5" fill-rule="evenodd" d="M504 187L508 187L508 191L512 196L515 195L517 197L521 195L523 199L531 199L533 201L532 206L535 205L539 211L541 211L540 208L543 206L544 211L548 217L550 217L550 215L555 212L557 214L559 212L559 216L565 219L566 212L564 203L571 198L580 201L581 200L581 196L588 185L587 184L590 176L589 175L594 170L594 162L597 160L581 164L578 167L577 166L578 167L576 169L565 170L561 165L563 163L560 158L562 155L558 155L551 148L548 149L545 146L539 147L537 145L537 138L535 138L534 131L531 128L532 125L530 125L531 122L529 121L530 120L527 116L528 115L524 107L525 106L521 104L522 103L520 101L514 101L504 95L489 97L488 98L490 102L485 108L488 109L489 112L491 112L494 109L498 113L497 116L500 125L515 124L517 120L524 127L522 135L517 142L518 150L514 152L512 165L510 159L499 170L496 171L495 174L500 181L502 179L503 180L503 178L504 180L505 179L505 181L500 182L501 186L504 187z" id="黑龙江省"/><path class="leaflet-interactive" stroke="#8B908F" stroke-opacity="0.5" stroke-width="1" stroke-linecap="butt" stroke-linejoin="bevel" fill="#eee" fill-opacity="0.5" fill-rule="evenodd" d="M483 344L487 348L492 345L487 340L485 340L483 344zM491 339L486 336L485 337L488 340L492 340zM490 342L488 340L490 342zM490 341L493 342L490 341zM489 340L488 340zM491 343L491 342zM491 342L491 342z" id="上海市"/><path class="leaflet-interactive" stroke="#8B908F" stroke-opacity="0.5" stroke-width="1" stroke-linecap="butt" stroke-linejoin="bevel" fill="#eee" fill-opacity="0.5" fill-rule="evenodd" d="M454 311L453 312L450 307L446 309L453 315L456 315L458 319L460 319L459 324L461 324L463 328L467 326L469 328L468 331L464 329L465 332L462 336L464 338L465 337L465 339L467 339L465 342L471 342L470 343L474 343L480 347L487 339L485 338L486 336L491 339L491 336L483 328L479 315L471 309L469 305L466 306L463 312L461 312L459 309L457 311L454 311z" id="江苏省"/><path class="leaflet-interactive" stroke="#8B908F" stroke-opacity="0.5" stroke-width="1" stroke-linecap="butt" stroke-linejoin="bevel" fill="#eee" fill-opacity="0.5" fill-rule="evenodd" d="M463 370L466 371L466 377L469 378L473 375L474 378L478 377L480 380L481 376L485 374L484 371L485 372L489 370L489 362L492 361L490 357L493 355L489 354L484 349L486 347L483 344L480 347L474 343L472 347L469 348L471 350L468 351L466 353L467 354L460 361L460 363L463 366L463 369zM493 354L494 355L494 353L492 352L493 354zM493 352L493 353zM494 357L494 357zM495 347L495 347zM493 351L494 352L493 351zM494 352L494 351zM492 362L492 361zM495 355L495 355zM495 350L495 350zM490 365L491 365zM494 355L494 356zM490 362L490 362zM485 376L485 376zM491 347L492 348L491 347zM491 368L491 368zM493 357L492 356L493 357zM495 354L495 355zM496 348L496 348zM491 368L491 368zM492 352L492 352zM495 354L495 354zM490 354L491 353L490 354zM484 377L484 377zM491 361L492 362L491 361zM492 356L492 357zM491 353L491 353zM491 351L491 351zM493 354L493 354zM494 357L494 356zM485 374L485 374zM498 353L498 353zM494 351L494 351zM494 355L494 355zM498 347L498 347zM484 373L485 372L484 373zM485 373L486 372L485 373zM495 354L495 354zM498 347L498 347zM493 354L494 354zM492 354L492 354zM484 373L484 372zM495 355L495 355zM493 354L493 354z" id="浙江省"/><path class="leaflet-interactive" stroke="#8B908F" stroke-opacity="0.5" stroke-width="1" stroke-linecap="butt" stroke-linejoin="bevel" fill="#eee" fill-opacity="0.5" fill-rule="evenodd" d="M448 316L449 317L445 319L441 315L441 320L439 320L438 323L434 325L437 328L437 330L443 330L443 337L441 337L438 340L442 344L444 344L441 348L445 356L448 355L448 353L451 355L449 357L450 358L453 355L455 355L456 358L463 359L467 354L466 353L471 350L469 348L471 348L473 344L470 343L471 342L465 342L467 340L463 336L465 332L464 329L468 331L469 328L467 326L463 328L461 324L459 324L461 319L457 319L458 317L456 315L452 315L447 310L445 311L446 313L448 313L448 316zM466 340L467 340zM449 357L449 357zM439 331L439 331z" id="安徽省"/><path class="leaflet-interactive" stroke="#8B908F" stroke-opacity="0.5" stroke-width="1" stroke-linecap="butt" stroke-linejoin="bevel" fill="#eee" fill-opacity="0.5" fill-rule="evenodd" d="M468 400L467 397L469 399L468 398L471 397L469 397L469 395L475 395L471 393L473 393L473 389L475 387L473 385L475 385L475 383L476 384L474 386L477 385L476 384L479 381L479 379L474 379L472 375L470 378L467 377L465 369L462 370L462 372L458 374L455 373L452 376L453 378L448 383L449 386L447 390L444 392L442 400L446 400L448 402L447 403L450 402L451 409L454 412L461 406L460 403L464 404L466 402L465 401L468 400zM463 404L462 405L463 404zM471 398L472 397L471 398zM472 394L472 394zM475 389L475 388zM461 405L461 404zM475 384L475 384zM461 404L460 403L461 404zM475 389L475 389zM473 389L472 389zM476 386L476 386zM473 394L473 393zM474 385L474 385zM477 385L477 385zM478 382L478 382zM477 383L477 383zM473 385L474 384L473 385z" id="福建省"/><path class="leaflet-interactive" stroke="#8B908F" stroke-opacity="0.5" stroke-width="1" stroke-linecap="butt" stroke-linejoin="bevel" fill="#eee" fill-opacity="0.5" fill-rule="evenodd" d="M461 360L460 358L456 358L455 355L453 355L450 358L449 357L451 355L449 353L443 357L439 355L439 357L437 357L434 360L430 360L427 363L429 365L429 370L425 374L424 378L426 378L425 381L428 386L427 388L429 388L427 396L433 397L429 402L431 404L438 401L441 403L442 402L444 393L449 386L448 383L453 379L452 376L455 373L458 374L463 371L463 367L460 363L461 360z" id="江西省"/><path class="leaflet-interactive" stroke="#8B908F" stroke-opacity="0.5" stroke-width="1" stroke-linecap="butt" stroke-linejoin="bevel" fill="#eee" fill-opacity="0.5" fill-rule="evenodd" d="M446 310L447 307L450 306L453 311L457 311L459 309L462 312L464 309L466 309L465 308L467 306L471 305L471 303L478 296L478 294L478 296L481 295L482 292L483 293L482 290L483 291L491 287L494 288L497 282L487 282L487 280L481 278L477 279L478 280L474 283L474 285L470 285L467 281L470 280L470 278L467 275L464 276L459 273L454 278L450 278L447 281L446 280L446 282L445 281L446 282L443 283L443 285L438 290L438 299L444 295L444 297L442 297L434 305L441 311L446 310zM481 277L482 277zM481 276L481 276zM484 292L483 292zM482 275L482 274zM483 273L483 272zM477 299L477 298zM481 277L480 276zM482 273L482 273zM488 280L488 280zM488 280L488 280zM488 280L488 280zM439 297L439 297z" id="山东省"/><path class="leaflet-interactive" stroke="#8B908F" stroke-opacity="0.5" stroke-width="1" stroke-linecap="butt" stroke-linejoin="bevel" fill="#eee" fill-opacity="0.5" fill-rule="evenodd" d="M417 332L420 331L423 333L425 331L427 338L432 338L433 340L436 339L438 341L439 338L443 337L443 331L439 331L437 327L434 326L438 324L441 315L445 319L449 317L445 310L439 310L439 308L437 308L436 306L435 307L434 304L444 296L439 297L438 299L439 296L437 294L435 296L426 293L424 300L419 304L412 303L411 306L398 311L405 327L412 332L416 332zM425 332L425 333z" id="河南省"/><path class="leaflet-interactive" stroke="#8B908F" stroke-opacity="0.5" stroke-width="1" stroke-linecap="butt" stroke-linejoin="bevel" fill="#eee" fill-opacity="0.5" fill-rule="evenodd" d="M404 324L391 324L394 327L396 327L395 330L392 329L391 333L392 338L396 341L397 345L390 349L382 349L384 352L382 356L384 356L387 359L386 360L388 359L389 362L390 359L392 357L393 358L393 356L400 357L400 353L410 355L413 358L417 358L419 356L420 359L424 355L424 361L426 363L429 360L435 360L434 359L440 355L443 357L444 356L444 352L442 350L442 346L444 344L440 343L436 339L433 340L432 337L427 338L425 332L412 332L409 329L408 330L404 324zM388 349L388 349zM404 324L404 324zM417 332L417 332zM418 356L419 356z" id="湖北省"/><path class="leaflet-interactive" stroke="#8B908F" stroke-opacity="0.5" stroke-width="1" stroke-linecap="butt" stroke-linejoin="bevel" fill="#eee" fill-opacity="0.5" fill-rule="evenodd" d="M411 402L413 398L417 398L417 400L419 400L418 397L420 395L424 397L427 394L427 390L429 389L427 389L428 386L426 384L426 378L424 378L424 376L425 373L428 372L427 371L429 369L429 365L426 362L425 363L424 356L420 359L419 356L417 358L413 358L410 355L399 353L399 357L391 357L389 361L389 372L391 376L389 378L388 377L388 379L385 381L390 380L392 382L392 384L390 384L389 387L394 392L394 389L398 391L400 388L406 388L405 391L407 391L403 400L407 398L407 402L411 401zM391 384L391 384z" id="湖南省"/><path class="leaflet-interactive" stroke="#8B908F" stroke-opacity="0.5" stroke-width="1" stroke-linecap="butt" stroke-linejoin="bevel" fill="#eee" fill-opacity="0.5" fill-rule="evenodd" d="M424 424L425 420L431 422L432 419L434 421L437 418L439 420L441 418L447 418L450 415L450 413L453 412L450 402L447 403L448 402L446 400L442 400L442 403L440 403L439 401L431 404L429 402L433 398L432 396L427 397L427 395L421 395L419 397L418 396L420 398L418 400L416 398L412 399L413 400L411 402L411 408L406 413L407 416L404 420L401 421L400 424L398 424L397 427L396 426L394 429L393 428L394 431L392 435L394 441L398 441L400 439L397 436L399 432L411 429L413 427L421 427L424 424zM452 413L452 413zM418 428L417 429L418 428zM415 429L416 429zM429 425L429 425zM399 433L400 434L400 432L399 433zM415 429L415 428zM399 434L397 434L400 434zM425 426L425 426zM425 426L425 426zM420 427L420 427zM426 422L426 422zM429 426L429 426zM429 426L428 426zM450 436L451 437L449 438L451 438L450 436zM419 427L419 427zM398 437L398 437zM400 435L400 435zM400 440L400 440zM443 433L444 434L443 433zM443 434L443 434zM442 419L442 419zM442 419L442 419z" id="广东省"/><path class="leaflet-interactive" stroke="#8B908F" stroke-opacity="0.5" stroke-width="1" stroke-linecap="butt" stroke-linejoin="bevel" fill="#eee" fill-opacity="0.5" fill-rule="evenodd" d="M391 390L390 393L387 392L386 393L388 393L386 395L385 394L384 397L383 395L381 395L380 398L378 398L372 394L370 398L363 402L356 399L353 403L351 403L358 408L363 407L365 409L364 412L362 412L359 415L362 418L367 417L369 419L367 423L369 424L368 426L379 430L384 428L387 429L387 431L389 431L392 429L393 430L393 428L394 429L397 426L398 427L398 425L401 424L401 422L407 417L407 411L411 409L410 407L412 405L410 401L407 403L406 398L404 400L403 399L407 392L405 392L405 388L400 388L397 391L395 389L394 392L391 390zM356 400L356 400zM388 434L388 434z" id="广西壮族自治区"/><path class="leaflet-interactive" stroke="#8B908F" stroke-opacity="0.5" stroke-width="1" stroke-linecap="butt" stroke-linejoin="bevel" fill="#eee" fill-opacity="0.5" fill-rule="evenodd" d="M396 443L389 444L384 449L384 455L386 457L392 459L400 453L400 450L404 446L401 442L396 442zM413 576L413 576zM421 542L422 541zM411 576L411 576zM407 468L408 467L407 468zM457 484L457 483zM413 575L413 575zM409 475L410 475zM408 475L409 475zM426 546L430 546L432 544L431 543L427 546zM427 535L428 536L427 535zM427 536L427 536zM411 474L411 474zM409 473L410 472L409 473zM413 536L413 536zM426 548L426 548zM429 536L429 536zM413 468L414 469L413 468zM433 523L433 523zM442 529L442 528zM432 527L433 526zM425 546L426 545zM391 548L393 546L395 547L391 547zM446 535L446 535zM415 477L416 476L415 477zM416 536L416 536zM431 519L432 519zM415 474L415 474zM447 523L448 523zM414 469L414 469zM407 473L408 473zM439 527L440 527zM433 541L433 541zM431 542L432 541zM437 539L438 540L437 539zM426 543L427 542zM439 531L439 531zM447 533L447 533zM424 535L425 534L424 535zM433 518L434 517L433 518zM432 515L432 514zM435 519L435 519zM408 473L408 473zM427 535L427 536zM395 544L395 543zM449 514L450 515L449 514zM409 472L409 472zM415 473L416 472L415 473zM409 476L410 476zM426 526L426 525zM434 541L434 541zM448 528L448 529zM438 525L438 525zM450 522L450 522zM433 475L433 475zM443 532L443 532zM425 533L425 533zM433 546L433 546zM431 520L432 520zM458 520L458 520zM429 524L429 524zM433 514L433 514zM449 522L449 522zM399 542L400 541L399 542zM407 538L407 538zM437 538L438 538zM421 542L421 542zM428 519L428 519zM454 524L454 523zM429 476L429 476zM400 542L400 542zM439 539L440 538zM408 546L408 546zM408 537L409 537zM399 544L399 544zM414 535L414 535zM447 528L447 528zM411 542L411 542zM431 480L431 480zM435 517L436 517zM428 477L428 477zM444 526L444 525zM454 521L454 520zM434 549L434 549zM418 535L418 535zM409 545L409 545zM413 536L413 536zM415 560L416 560zM432 536L432 535zM434 543L434 542zM419 539L419 539zM424 551L424 551zM449 474L449 474zM454 526L454 525zM419 447L419 447zM431 476L431 476zM426 450L426 450zM416 566L417 566zM408 543L408 543zM413 535L414 535zM418 544L419 544zM416 562L416 562zM415 562L415 561zM438 494L438 494zM424 524L424 524zM426 481L426 481zM419 567L419 567zM416 566L416 566zM414 562L414 562zM413 470L413 470zM413 479L413 479zM416 564L416 564zM415 561L415 561zM421 556L421 556zM445 530L445 530zM435 547L435 546zM408 544L408 544zM427 478L427 478zM435 476L435 477zM449 534L449 534zM416 473L417 473zM405 444L405 444zM441 523L442 523zM453 520L453 521zM417 474L417 474zM442 522L442 522zM415 530L416 530zM432 480L432 480zM454 517L454 518zM457 518L457 518zM429 531L429 531zM433 528L433 529zM416 559L416 559z" id="海南省"/><path class="leaflet-interactive" stroke="#8B908F" stroke-opacity="0.5" stroke-width="1" stroke-linecap="butt" stroke-linejoin="bevel" fill="#eee" fill-opacity="0.5" fill-rule="evenodd" d="M366 368L367 365L368 368L372 364L373 365L375 361L377 361L378 364L382 362L382 366L384 366L384 368L387 371L390 367L390 363L388 359L386 359L386 357L382 356L384 352L382 350L384 350L385 348L388 349L396 346L397 343L395 340L393 338L389 338L387 335L383 333L383 335L381 335L383 339L379 343L380 342L378 347L374 347L375 348L371 354L369 354L368 351L365 352L361 350L361 352L359 352L361 354L358 360L361 361L361 363L363 363L366 367zM388 348L388 349zM360 353L360 353zM388 349L388 349zM371 354L371 354z" id="重庆市"/><path class="leaflet-interactive" stroke="#8B908F" stroke-opacity="0.5" stroke-width="1" stroke-linecap="butt" stroke-linejoin="bevel" fill="#eee" fill-opacity="0.5" fill-rule="evenodd" d="M324 380L329 390L338 387L338 379L343 374L343 370L344 371L346 369L345 368L349 366L349 370L351 370L349 372L351 374L357 372L358 375L365 375L365 371L361 369L360 370L360 368L363 365L366 368L365 364L361 364L361 362L357 358L361 355L360 352L359 353L362 350L365 352L368 351L368 353L371 354L375 347L379 346L379 342L383 339L381 335L383 335L383 333L379 333L376 331L375 332L375 330L372 331L371 328L364 329L364 327L362 327L360 329L359 326L358 329L352 329L349 326L350 323L348 319L341 318L338 313L333 316L335 320L330 325L329 320L328 325L324 323L325 328L319 330L317 328L316 329L314 325L313 328L306 325L302 315L296 315L294 319L297 322L294 324L295 325L293 327L301 333L305 341L303 343L306 347L308 368L310 371L310 367L312 365L316 369L315 372L318 375L320 373L324 380zM365 352L365 352zM371 353L371 353zM359 352L359 352z" id="四川省"/><path class="leaflet-interactive" stroke="#8B908F" stroke-opacity="0.5" stroke-width="1" stroke-linecap="butt" stroke-linejoin="bevel" fill="#eee" fill-opacity="0.5" fill-rule="evenodd" d="M389 368L388 371L386 371L385 368L384 369L384 367L382 366L382 362L378 364L378 362L375 361L374 364L372 364L368 368L367 365L366 368L363 365L360 368L360 370L361 369L365 371L365 374L359 374L356 378L353 379L350 377L348 379L346 377L344 381L345 386L352 385L349 394L352 397L354 397L351 401L353 403L357 399L363 403L365 401L364 400L370 398L372 394L374 395L374 397L379 398L381 396L380 395L384 396L384 394L386 395L388 393L386 393L387 392L390 393L391 388L389 388L389 384L391 384L391 380L386 381L388 379L387 378L391 376L389 368zM391 383L391 383zM391 384L392 384z" id="贵州省"/><path class="leaflet-interactive" stroke="#8B908F" stroke-opacity="0.5" stroke-width="1" stroke-linecap="butt" stroke-linejoin="bevel" fill="#eee" fill-opacity="0.5" fill-rule="evenodd" d="M357 375L355 371L354 373L351 374L349 372L351 370L349 370L350 367L346 367L346 369L344 371L343 370L342 375L338 379L339 386L336 389L336 387L330 390L323 380L321 376L322 375L320 373L318 375L315 372L316 369L312 365L310 367L310 371L308 369L308 361L306 361L306 365L304 363L303 366L305 369L303 371L301 369L300 370L301 377L304 376L305 379L305 389L303 389L304 391L296 399L297 400L295 404L297 406L295 408L296 409L300 407L306 407L304 409L306 412L305 413L307 416L311 416L308 424L313 425L317 430L321 430L323 428L325 430L324 431L328 433L329 428L327 423L329 421L332 422L335 419L339 422L342 419L346 421L349 418L350 420L354 418L353 417L356 414L359 415L362 412L364 412L365 409L363 407L358 408L355 404L351 404L353 399L353 397L350 394L352 385L350 384L346 386L344 383L346 377L348 379L350 377L354 379L357 376z" id="云南省"/><path class="leaflet-interactive" stroke="#8B908F" stroke-opacity="0.5" stroke-width="1" stroke-linecap="butt" stroke-linejoin="bevel" fill="#eee" fill-opacity="0.5" fill-rule="evenodd" d="M232 295L223 292L213 292L205 294L202 299L201 298L199 300L196 298L187 303L178 302L177 299L173 299L173 301L171 301L169 304L157 302L157 304L155 306L154 305L153 310L151 312L147 312L143 316L143 320L148 327L147 332L145 332L144 329L141 330L141 334L144 336L144 342L147 345L150 344L155 349L156 348L160 350L164 354L166 350L171 351L183 362L185 360L188 361L187 362L192 367L195 366L197 370L200 369L202 373L204 371L204 373L208 371L211 374L219 374L221 372L225 372L224 377L226 379L233 370L241 372L243 374L245 372L247 376L251 378L252 383L263 382L269 376L274 375L277 373L277 371L280 370L284 370L291 374L294 372L293 371L295 367L300 371L300 369L304 371L304 363L306 365L306 361L308 361L306 352L307 351L305 344L303 342L306 341L302 337L300 331L293 330L294 333L293 332L292 335L288 335L289 338L285 336L284 339L282 337L279 338L277 336L278 333L275 333L276 332L271 329L263 331L258 328L252 328L247 325L241 325L237 323L231 316L233 314L233 307L231 307L230 304L233 298L229 296L232 295z" id="西藏自治区"/><path class="leaflet-interactive" stroke="#8B908F" stroke-opacity="0.5" stroke-width="1" stroke-linecap="butt" stroke-linejoin="bevel" fill="#eee" fill-opacity="0.5" fill-rule="evenodd" d="M398 310L397 307L400 300L398 286L402 280L399 274L403 270L403 266L405 263L404 260L400 263L396 261L397 262L395 264L394 263L395 264L388 271L388 276L386 276L384 280L380 280L377 277L373 281L373 287L380 291L381 290L384 293L384 303L377 303L377 307L367 305L368 308L366 310L369 313L367 313L368 315L366 317L368 320L362 320L361 323L363 324L361 327L359 327L363 327L365 329L371 328L372 331L375 330L375 332L376 331L379 334L382 333L392 338L391 331L393 329L397 329L394 326L393 327L393 325L391 324L400 323L401 325L403 323L398 310zM403 321L403 321zM364 328L364 328z" id="陕西省"/><path class="leaflet-interactive" stroke="#8B908F" stroke-opacity="0.5" stroke-width="1" stroke-linecap="butt" stroke-linejoin="bevel" fill="#eee" fill-opacity="0.5" fill-rule="evenodd" d="M367 299L366 304L362 302L363 301L361 301L358 298L358 288L351 282L346 281L344 278L342 278L342 272L346 270L349 265L347 261L342 262L339 265L334 263L331 264L331 267L329 269L322 266L321 262L319 262L313 257L310 257L315 253L317 249L316 246L308 246L308 248L307 247L304 249L304 247L301 249L301 246L298 244L296 240L296 234L292 225L284 227L282 229L284 232L283 235L277 238L274 237L266 244L264 248L258 249L256 259L253 263L254 266L256 264L260 264L260 267L264 267L266 269L269 268L271 272L280 272L284 275L286 273L288 274L288 272L291 269L291 264L300 268L301 265L303 267L305 265L308 266L307 267L314 273L316 274L316 271L319 274L320 273L324 278L332 280L339 296L330 308L330 310L333 313L329 315L322 312L321 313L324 319L329 321L330 320L330 324L333 323L332 322L334 322L335 320L333 319L332 316L334 316L337 313L340 315L341 318L348 319L350 323L349 326L352 329L358 329L359 326L362 326L362 320L368 320L367 313L369 313L366 310L368 308L367 305L376 307L378 306L376 304L377 303L383 304L383 298L385 296L384 292L375 288L372 285L368 285L368 289L366 291L367 294L371 296L370 299L368 299zM363 301L364 301zM337 293L338 293zM364 302L364 302zM367 299L367 299z" id="甘肃省"/><path class="leaflet-interactive" stroke="#8B908F" stroke-opacity="0.5" stroke-width="1" stroke-linecap="butt" stroke-linejoin="bevel" fill="#eee" fill-opacity="0.5" fill-rule="evenodd" d="M337 293L337 289L331 279L330 280L328 278L324 278L322 274L321 275L316 271L316 273L314 273L306 265L304 265L303 267L301 265L299 268L294 264L290 264L291 269L288 272L288 274L286 273L284 275L280 272L271 273L269 268L266 269L264 267L260 267L260 265L257 264L245 269L240 269L235 272L236 274L239 273L238 279L245 285L240 288L240 290L243 291L243 294L241 296L235 294L233 296L229 296L233 298L230 303L230 305L233 308L233 314L231 316L237 323L241 325L244 324L252 328L261 329L263 331L271 329L278 334L277 336L279 338L282 337L284 339L285 336L289 338L288 335L289 336L292 335L293 332L294 333L293 330L295 330L294 325L296 322L294 318L297 314L302 316L305 323L309 327L312 328L314 326L316 328L315 329L318 328L320 330L325 328L324 323L327 323L328 325L329 321L325 319L321 314L323 312L328 315L333 313L330 310L330 308L334 304L333 303L337 301L336 299L339 296L338 293z" id="青海省"/><path class="leaflet-interactive" stroke="#8B908F" stroke-opacity="0.5" stroke-width="1" stroke-linecap="butt" stroke-linejoin="bevel" fill="#eee" fill-opacity="0.5" fill-rule="evenodd" d="M373 285L373 281L376 278L373 275L367 273L371 266L369 262L365 263L365 265L364 264L362 268L362 276L360 279L349 282L351 282L358 289L357 290L359 294L359 299L361 299L361 301L363 301L366 304L366 299L370 299L371 296L367 293L367 287L369 285L373 285zM363 301L363 302zM364 302L364 302z" id="宁夏回族自治区"/><path class="leaflet-interactive" stroke="#8B908F" stroke-opacity="0.5" stroke-width="1" stroke-linecap="butt" stroke-linejoin="bevel" fill="#eee" fill-opacity="0.5" fill-rule="evenodd" d="M286 226L282 221L279 212L277 212L278 209L274 209L262 201L252 201L246 199L245 200L243 198L242 199L240 194L243 189L241 186L243 182L242 178L240 178L236 169L230 165L227 166L223 164L223 162L218 158L219 157L216 156L216 151L214 153L209 152L209 156L204 161L202 160L198 164L200 173L198 177L194 179L185 178L178 175L172 193L172 195L175 197L174 199L169 198L168 196L166 198L159 200L158 199L153 202L157 205L157 211L160 218L160 221L157 223L158 224L155 227L156 232L151 236L139 241L138 243L136 243L136 245L129 245L124 252L121 251L119 253L119 249L115 251L112 250L113 252L111 252L108 255L107 254L104 257L105 260L102 261L103 266L104 265L103 268L106 271L107 269L112 271L114 279L113 280L115 282L113 284L109 284L120 289L122 291L121 296L124 298L125 297L133 302L138 301L138 305L140 307L139 309L145 313L153 311L154 306L157 304L157 302L169 304L174 299L176 299L179 302L184 303L196 298L198 300L201 299L206 294L210 294L213 292L223 292L233 296L235 294L241 296L243 292L240 289L245 285L239 279L239 273L236 274L235 271L253 266L258 249L264 248L268 242L274 237L276 237L277 239L279 236L281 236L284 232L282 229L284 227z" id="新疆维吾尔自治区"/><path class="leaflet-interactive" stroke="#8B908F" stroke-opacity="0.5" stroke-width="1" stroke-linecap="butt" stroke-linejoin="bevel" fill="#eee" fill-opacity="0.5" fill-rule="evenodd" d="M479 422L482 427L483 421L487 416L491 404L491 398L485 398L480 404L478 410L476 411L478 421zM512 391L512 391zM503 393L504 392L503 393zM473 412L472 413zM505 391L505 391zM472 411L471 412L472 411zM472 414L472 414zM472 411L472 411zM492 394L492 394zM487 420L488 420zM488 425L488 425zM492 395L493 395zM471 415L471 415zM478 423L479 423z" id="台湾省"/><path class="leaflet-interactive" stroke="#8B908F" stroke-opacity="0.5" stroke-width="1" stroke-linecap="butt" stroke-linejoin="bevel" fill="#eee" fill-opacity="0.5" fill-rule="evenodd" d="M428 421L428 423L426 423L427 424L431 422L428 421zM428 424L429 424zM430 422L430 422zM430 422L430 422zM430 422L430 422zM430 423L430 423zM430 422L430 422zM430 423L430 423zM430 423L430 423z" id="香港特别行政区"/><path class="leaflet-interactive" stroke="#8B908F" stroke-opacity="0.5" stroke-width="1" stroke-linecap="butt" stroke-linejoin="bevel" fill="#eee" fill-opacity="0.5" fill-rule="evenodd" d="M424 425L424 424zM424 424L424 424z" id="澳门特别行政区"/><path class="leaflet-interactive" stroke="#8B908F" stroke-opacity="0.5" stroke-width="1" stroke-linecap="butt" stroke-linejoin="bevel" fill="#eee" fill-opacity="0.5" fill-rule="evenodd" d="M496 413L498 403L496 413zM485 436L491 428L485 436zM471 460L476 451L471 460zM468 485L468 476L468 485zM465 517L464 519L467 510L466 513zM440 550L445 543L440 550zM414 579L410 580L418 577L415 578zM381 558L382 559L381 551L381 558zM396 515L398 512L398 508L397 514zM394 483L390 475L393 481z" id="100000_JD"/></g></svg>